<svg xmlns="http://www.w3.org/2000/svg" viewBox="0 0 64 64">

    <!-- Background -->
    <circle cx="32" cy="32" r="32" fill="#2C1810"/>

    <!-- Steam -->
    <path fill="#D4A373"
          d="M24 10
             C21 14 27 16 24 20
             C21 24 27 26 24 30
             C31 26 31 18 24 10Z"/>

    <path fill="#D4A373"
          d="M40 10
             C37 14 43 16 40 20
             C37 24 43 26 40 30
             C47 26 47 18 40 10Z"/>

    <!-- Mug -->
    <path fill="#FAF7F2"
          d="
          M14 22
          H46
          V42
          C46 49 41 54 34 54
          H26
          C19 54 14 49 14 42
          Z"/>

    <!-- Handle -->
    <path fill="#FAF7F2"
          d="
          M46 25
          H54
          C58 25 60 28 60 32
          C60 36 58 39 54 39
          H46
          V35
          H52
          C54 35 55 34 55 32
          C55 30 54 29 52 29
          H46
          Z"/>

</svg>